<svg viewBox="0 0 900 620" xmlns="http://www.w3.org/2000/svg" font-family="'Courier New', monospace">
  <defs>
    <linearGradient id="bgGrad" x1="0%" y1="0%" x2="100%" y2="100%">
      <stop offset="0%" style="stop-color:#0d1117"/>
      <stop offset="100%" style="stop-color:#161b22"/>
    </linearGradient>
    <linearGradient id="kaliGrad" x1="0%" y1="0%" x2="0%" y2="100%">
      <stop offset="0%" style="stop-color:#2d1b3d"/>
      <stop offset="100%" style="stop-color:#1a0f26"/>
    </linearGradient>
    <linearGradient id="winGrad" x1="0%" y1="0%" x2="0%" y2="100%">
      <stop offset="0%" style="stop-color:#0d2137"/>
      <stop offset="100%" style="stop-color:#071525"/>
    </linearGradient>
    <linearGradient id="splunkGrad" x1="0%" y1="0%" x2="0%" y2="100%">
      <stop offset="0%" style="stop-color:#1a2e1a"/>
      <stop offset="100%" style="stop-color:#0d1a0d"/>
    </linearGradient>
    <linearGradient id="hostGrad" x1="0%" y1="0%" x2="0%" y2="100%">
      <stop offset="0%" style="stop-color:#1c2128"/>
      <stop offset="100%" style="stop-color:#0d1117"/>
    </linearGradient>
    <filter id="glow-red">
      <feGaussianBlur stdDeviation="3" result="coloredBlur"/>
      <feMerge><feMergeNode in="coloredBlur"/><feMergeNode in="SourceGraphic"/></feMerge>
    </filter>
    <filter id="glow-blue">
      <feGaussianBlur stdDeviation="3" result="coloredBlur"/>
      <feMerge><feMergeNode in="coloredBlur"/><feMergeNode in="SourceGraphic"/></feMerge>
    </filter>
    <filter id="glow-green">
      <feGaussianBlur stdDeviation="4" result="coloredBlur"/>
      <feMerge><feMergeNode in="coloredBlur"/><feMergeNode in="SourceGraphic"/></feMerge>
    </filter>
    <filter id="shadow">
      <feDropShadow dx="0" dy="4" stdDeviation="8" flood-color="#000" flood-opacity="0.5"/>
    </filter>
    <marker id="arrowRed" markerWidth="10" markerHeight="7" refX="9" refY="3.5" orient="auto">
      <polygon points="0 0, 10 3.5, 0 7" fill="#ff4444"/>
    </marker>
    <marker id="arrowBlue" markerWidth="10" markerHeight="7" refX="9" refY="3.5" orient="auto">
      <polygon points="0 0, 10 3.5, 0 7" fill="#4fc3f7"/>
    </marker>
    <marker id="arrowGreen" markerWidth="10" markerHeight="7" refX="9" refY="3.5" orient="auto">
      <polygon points="0 0, 10 3.5, 0 7" fill="#66bb6a"/>
    </marker>
  </defs>
 
  <!-- Background -->
  <rect width="900" height="620" fill="url(#bgGrad)" rx="12"/>
 
  <!-- Title -->
  <text x="450" y="38" text-anchor="middle" fill="#58a6ff" font-size="18" font-weight="bold" letter-spacing="3">🛡️  HOME SIEM LAB ARCHITECTURE</text>
  <text x="450" y="58" text-anchor="middle" fill="#8b949e" font-size="11" letter-spacing="2">Splunk Enterprise  ·  Sysmon  ·  VirtualBox</text>
  <line x1="60" y1="68" x2="840" y2="68" stroke="#30363d" stroke-width="1"/>
 
  <!-- HOST LAPTOP BORDER -->
  <rect x="30" y="78" width="840" height="510" rx="10" fill="url(#hostGrad)" stroke="#30363d" stroke-width="1.5" stroke-dasharray="6,3" filter="url(#shadow)"/>
  <text x="50" y="100" fill="#8b949e" font-size="10" letter-spacing="2">VIRTUALBOX HOST — LAPTOP</text>
 
  <!-- ========== KALI LINUX VM ========== -->
  <rect x="60" y="115" width="220" height="210" rx="8" fill="url(#kaliGrad)" stroke="#7c3aed" stroke-width="1.5" filter="url(#shadow)"/>
  <!-- Header bar -->
  <rect x="60" y="115" width="220" height="32" rx="8" fill="#4c1d95"/>
  <rect x="60" y="131" width="220" height="16" fill="#4c1d95"/>
  <text x="170" y="136" text-anchor="middle" fill="#c4b5fd" font-size="12" font-weight="bold" letter-spacing="1">KALI LINUX</text>
  <text x="170" y="152" text-anchor="middle" fill="#a78bfa" font-size="9" letter-spacing="1">ATTACKER VM</text>
 
  <!-- Kali icon -->
  <circle cx="170" cy="195" r="32" fill="#2d1b3d" stroke="#7c3aed" stroke-width="1.5"/>
  <text x="170" y="203" text-anchor="middle" font-size="28">🐉</text>
 
  <!-- Kali details -->
  <rect x="75" y="237" width="190" height="18" rx="3" fill="#1a0f26"/>
  <text x="170" y="250" text-anchor="middle" fill="#c4b5fd" font-size="10">OS: Kali Linux Rolling</text>
  <rect x="75" y="259" width="190" height="18" rx="3" fill="#1a0f26"/>
  <text x="170" y="272" text-anchor="middle" fill="#c4b5fd" font-size="10">RAM: 2GB  ·  Disk: 30GB</text>
  <rect x="75" y="281" width="190" height="18" rx="3" fill="#1a0f26"/>
  <text x="170" y="294" text-anchor="middle" fill="#ff9d4d" font-size="10" font-weight="bold">IP: 192.168.56.103</text>
 
  <!-- Kali tools -->
  <text x="170" y="315" text-anchor="middle" fill="#8b949e" font-size="9">nmap · hydra · metasploit</text>
 
  <!-- ========== WINDOWS 10 VM ========== -->
  <rect x="340" y="115" width="220" height="260" rx="8" fill="url(#winGrad)" stroke="#0ea5e9" stroke-width="1.5" filter="url(#shadow)"/>
  <rect x="340" y="115" width="220" height="32" rx="8" fill="#0c4a6e"/>
  <rect x="340" y="131" width="220" height="16" fill="#0c4a6e"/>
  <text x="450" y="136" text-anchor="middle" fill="#7dd3fc" font-size="12" font-weight="bold" letter-spacing="1">WINDOWS 10</text>
  <text x="450" y="152" text-anchor="middle" fill="#38bdf8" font-size="9" letter-spacing="1">TARGET · LOG SOURCE</text>
 
  <circle cx="450" cy="192" r="32" fill="#071525" stroke="#0ea5e9" stroke-width="1.5"/>
  <text x="450" y="200" text-anchor="middle" font-size="28">🪟</text>
 
  <rect x="355" y="232" width="190" height="18" rx="3" fill="#071525"/>
  <text x="450" y="245" text-anchor="middle" fill="#7dd3fc" font-size="10">OS: Windows 10 Enterprise</text>
  <rect x="355" y="254" width="190" height="18" rx="3" fill="#071525"/>
  <text x="450" y="267" text-anchor="middle" fill="#7dd3fc" font-size="10">RAM: 2GB  ·  Disk: 40GB</text>
  <rect x="355" y="276" width="190" height="18" rx="3" fill="#071525"/>
  <text x="450" y="289" text-anchor="middle" fill="#ff9d4d" font-size="10" font-weight="bold">IP: 192.168.56.101</text>
 
  <!-- Sysmon badge -->
  <rect x="355" y="302" width="90" height="40" rx="5" fill="#0d2137" stroke="#0ea5e9" stroke-width="1"/>
  <text x="400" y="317" text-anchor="middle" fill="#7dd3fc" font-size="9" font-weight="bold">SYSMON</text>
  <text x="400" y="334" text-anchor="middle" fill="#8b949e" font-size="8">EventID 1,3,7</text>
 
  <!-- UF badge -->
  <rect x="455" y="302" width="90" height="40" rx="5" fill="#0d2137" stroke="#f97316" stroke-width="1"/>
  <text x="500" y="317" text-anchor="middle" fill="#fdba74" font-size="9" font-weight="bold">UF :9997</text>
  <text x="500" y="334" text-anchor="middle" fill="#8b949e" font-size="8">Forwarder</text>
 
  <!-- Win event logs list -->
  <text x="450" y="362" text-anchor="middle" fill="#8b949e" font-size="9">Security · System · Application · Sysmon</text>
 
  <!-- ========== UBUNTU SPLUNK VM ========== -->
  <rect x="620" y="115" width="220" height="310" rx="8" fill="url(#splunkGrad)" stroke="#22c55e" stroke-width="1.5" filter="url(#shadow)"/>
  <rect x="620" y="115" width="220" height="32" rx="8" fill="#14532d"/>
  <rect x="620" y="131" width="220" height="16" fill="#14532d"/>
  <text x="730" y="136" text-anchor="middle" fill="#86efac" font-size="12" font-weight="bold" letter-spacing="1">UBUNTU 22.04 LTS</text>
  <text x="730" y="152" text-anchor="middle" fill="#4ade80" font-size="9" letter-spacing="1">SPLUNK ENTERPRISE · SIEM</text>
 
  <circle cx="730" cy="195" r="32" fill="#0d1a0d" stroke="#22c55e" stroke-width="1.5"/>
  <text x="730" y="203" text-anchor="middle" font-size="28">🔍</text>
 
  <rect x="635" y="235" width="190" height="18" rx="3" fill="#0d1a0d"/>
  <text x="730" y="248" text-anchor="middle" fill="#86efac" font-size="10">Splunk Enterprise 9.x</text>
  <rect x="635" y="257" width="190" height="18" rx="3" fill="#0d1a0d"/>
  <text x="730" y="270" text-anchor="middle" fill="#86efac" font-size="10">RAM: 4GB  ·  Disk: 50GB</text>
  <rect x="635" y="279" width="190" height="18" rx="3" fill="#0d1a0d"/>
  <text x="730" y="292" text-anchor="middle" fill="#ff9d4d" font-size="10" font-weight="bold">IP: 192.168.56.102</text>
 
  <!-- Splunk ports -->
  <rect x="635" y="305" width="88" height="40" rx="5" fill="#0d1a0d" stroke="#22c55e" stroke-width="1"/>
  <text x="679" y="320" text-anchor="middle" fill="#86efac" font-size="9" font-weight="bold">Web UI</text>
  <text x="679" y="337" text-anchor="middle" fill="#4ade80" font-size="10">:8000</text>
 
  <rect x="727" y="305" width="88" height="40" rx="5" fill="#0d1a0d" stroke="#f97316" stroke-width="1"/>
  <text x="771" y="320" text-anchor="middle" fill="#fdba74" font-size="9" font-weight="bold">Receive</text>
  <text x="771" y="337" text-anchor="middle" fill="#fb923c" font-size="10">:9997</text>
 
  <!-- SPL queries box -->
  <rect x="635" y="353" width="190" height="60" rx="5" fill="#050e05" stroke="#22c55e" stroke-width="1"/>
  <text x="645" y="369" fill="#4ade80" font-size="8" font-weight="bold">SPL SEARCH</text>
  <text x="645" y="384" fill="#86efac" font-size="8">index=main</text>
  <text x="645" y="397" fill="#86efac" font-size="8">| stats count by host,</text>
  <text x="645" y="410" fill="#86efac" font-size="8">  sourcetype</text>
 
  <!-- ========== ARROWS ========== -->
 
  <!-- Kali → Windows (attack) -->
  <path d="M 280 220 C 310 220 310 220 340 220" stroke="#ff4444" stroke-width="2" fill="none" stroke-dasharray="6,3" marker-end="url(#arrowRed)" filter="url(#glow-red)"/>
  <rect x="285" y="207" width="52" height="16" rx="3" fill="#1a0808"/>
  <text x="311" y="219" text-anchor="middle" fill="#ff4444" font-size="9" font-weight="bold">ATTACK</text>
 
  <!-- Windows UF → Splunk (log forward) -->
  <path d="M 560 322 C 590 322 590 322 620 322" stroke="#f97316" stroke-width="2.5" fill="none" marker-end="url(#arrowBlue)" filter="url(#glow-blue)"/>
  <rect x="562" y="308" width="56" height="28" rx="3" fill="#1a0d00"/>
  <text x="590" y="320" text-anchor="middle" fill="#fdba74" font-size="8" font-weight="bold">FORWARD</text>
  <text x="590" y="330" text-anchor="middle" fill="#f97316" font-size="8">:9997</text>
 
  <!-- ========== NETWORK SECTION ========== -->
  <rect x="60" y="460" width="810" height="115" rx="8" fill="#0d1117" stroke="#30363d" stroke-width="1"/>
  <text x="80" y="480" fill="#8b949e" font-size="10" letter-spacing="2">NETWORK CONFIGURATION</text>
 
  <!-- NAT Adapter -->
  <rect x="80" y="490" width="370" height="70" rx="6" fill="#161b22" stroke="#30363d" stroke-width="1"/>
  <rect x="80" y="490" width="370" height="22" rx="6" fill="#21262d"/>
  <rect x="80" y="500" width="370" height="12" fill="#21262d"/>
  <text x="265" y="505" text-anchor="middle" fill="#58a6ff" font-size="10" font-weight="bold" letter-spacing="1">ADAPTER 1 — NAT</text>
  <text x="265" y="525" text-anchor="middle" fill="#8b949e" font-size="10">Internet access for all VMs</text>
  <text x="265" y="542" text-anchor="middle" fill="#8b949e" font-size="10">Downloads · Updates · External resources</text>
  <text x="265" y="552" text-anchor="middle" fill="#3fb950" font-size="9">🌐  outbound only · isolated from LAN</text>
 
  <!-- Host-Only Adapter -->
  <rect x="468" y="490" width="382" height="70" rx="6" fill="#161b22" stroke="#30363d" stroke-width="1"/>
  <rect x="468" y="490" width="382" height="22" rx="6" fill="#21262d"/>
  <rect x="468" y="500" width="382" height="12" fill="#21262d"/>
  <text x="659" y="505" text-anchor="middle" fill="#f97316" font-size="10" font-weight="bold" letter-spacing="1">ADAPTER 2 — HOST-ONLY (vboxnet0)</text>
  <text x="659" y="525" text-anchor="middle" fill="#8b949e" font-size="10">Internal lab communication · 192.168.56.0/24</text>
  <text x="659" y="542" text-anchor="middle" fill="#8b949e" font-size="10">Kali ↔ Windows ↔ Splunk</text>
  <text x="659" y="552" text-anchor="middle" fill="#f97316" font-size="9">🔒  isolated internal network · no external exposure</text>
 
  <!-- Legend -->
  <line x1="60" y1="590" x2="100" y2="590" stroke="#ff4444" stroke-width="2" stroke-dasharray="5,3"/>
  <text x="108" y="594" fill="#8b949e" font-size="9">Attack Traffic</text>
  <line x1="200" y1="590" x2="240" y2="590" stroke="#f97316" stroke-width="2.5"/>
  <text x="248" y="594" fill="#8b949e" font-size="9">Log Forwarding (port 9997)</text>
  <circle cx="390" cy="590" r="5" fill="#7c3aed"/>
  <text x="400" y="594" fill="#8b949e" font-size="9">Kali Linux</text>
  <circle cx="460" cy="590" r="5" fill="#0ea5e9"/>
  <text x="470" y="594" fill="#8b949e" font-size="9">Windows 10</text>
  <circle cx="545" cy="590" r="5" fill="#22c55e"/>
  <text x="555" y="594" fill="#8b949e" font-size="9">Splunk Server</text>
 
  <!-- Version watermark -->
  <text x="850" y="614" text-anchor="end" fill="#30363d" font-size="8">v1.0 · Home SIEM Lab</text>
</svg>
 
